<svg width="48" height="45" viewBox="0 0 48 45" fill="none" xmlns="http://www.w3.org/2000/svg">
<path d="M21.7766 16.9985L18.4043 22.1998L24.4841 22.3972L27.8605 17.2L21.7766 16.9985Z" fill="#FE8700"/>
<path d="M27.8617 17.2L24.4854 22.3972L25.8631 28.0014L29.2395 22.8041L27.8617 17.2Z" fill="url(#paint0_linear_54_16443)"/>
<path d="M42.0242 20.4432C44.0909 28.8475 38.3715 35.4186 29.2517 35.1205C20.132 34.8223 11.0602 27.7637 8.99358 19.3595C6.92692 10.9552 12.6463 4.38814 21.7661 4.68628C30.8858 4.98844 39.9575 12.043 42.0242 20.4432ZM19.2388 27.103L35.4517 27.6348L31.779 12.6997L15.5661 12.1679L19.2388 27.103Z" fill="#7A7A7A"/>
<path d="M3.9219 19.1903C6.62539 30.1771 18.4767 39.3952 30.4001 39.786C42.3194 40.1768 49.7971 31.5953 47.0936 20.6085C44.3901 9.62575 32.5388 0.407666 20.6194 0.0128351C8.69606 -0.377967 1.22242 8.20356 3.9259 19.1863L3.9219 19.1903ZM21.7769 16.9986L27.8568 17.2001L29.2346 22.8042L23.1547 22.6028L21.7769 16.9986Z" fill="#FFDD50"/>
<path d="M42.0242 20.4432C44.0909 28.8475 38.3715 35.4186 29.2517 35.1205C20.132 34.8223 11.0602 27.7637 8.99358 19.3595C6.92692 10.9552 12.6463 4.38814 21.7661 4.68628C30.8858 4.98844 39.9575 12.043 42.0242 20.4432ZM19.2388 27.103L35.4517 27.6348L31.779 12.6997L15.5661 12.1679L19.2388 27.103Z" fill="url(#paint1_linear_54_16443)"/>
<path d="M5.6329 6.86981C4.50745 8.60223 3.38199 10.3387 2.26055 12.0711C0.10977 15.3828 -0.611161 19.6655 0.554343 24.3914C3.25783 35.3782 15.1091 44.5963 27.0325 44.9871C33.8253 45.2087 39.1722 42.5214 42.0199 38.134C43.1453 36.4015 44.2668 34.6651 45.3922 32.9327C42.5445 37.3201 37.1976 40.0074 30.4049 39.7858C18.4855 39.395 6.63019 30.1729 3.9267 19.1901C2.7652 14.4643 3.48613 10.1856 5.6369 6.86981H5.6329Z" fill="url(#paint2_linear_54_16443)"/>
<defs>
<linearGradient id="paint0_linear_54_16443" x1="24.4854" y1="22.6027" x2="29.2395" y2="22.6027" gradientUnits="userSpaceOnUse">
<stop stop-color="#EFC008"/>
<stop offset="0.54" stop-color="#A83808"/>
<stop offset="1" stop-color="#F8BF10"/>
</linearGradient>
<linearGradient id="paint1_linear_54_16443" x1="8.56903" y1="19.8993" x2="42.4447" y2="19.8993" gradientUnits="userSpaceOnUse">
<stop stop-color="#E8855A"/>
<stop offset="1" stop-color="#E8C808"/>
</linearGradient>
<linearGradient id="paint2_linear_54_16443" x1="2.74517" y1="12.2202" x2="36.0467" y2="43.2438" gradientUnits="userSpaceOnUse">
<stop stop-color="#EFC008"/>
<stop offset="0.54" stop-color="#A83808"/>
<stop offset="1" stop-color="#F8BF10"/>
</linearGradient>
</defs>
</svg>
