<svg width="100" height="100" viewBox="0 0 100 100" fill="none" xmlns="http://www.w3.org/2000/svg">
<rect x="2" y="2" width="96" height="96" rx="14" fill="url(#paint0_linear_1088_644)" stroke="white" stroke-width="4"/>
<mask id="mask0_1088_644" style="mask-type:luminance" maskUnits="userSpaceOnUse" x="38" y="48" width="26" height="37">
<path d="M38.6143 48.5449H63.1636V84.606H38.6143V48.5449Z" fill="white"/>
</mask>
<g mask="url(#mask0_1088_644)">
<path d="M61.3295 60.8249L62.1229 60.0315C63.5006 58.6539 63.5006 56.4179 62.1229 55.04C60.7453 53.6624 58.5093 53.6624 57.1314 55.04L56.338 55.8336L54.3472 57.6584H54.0444V57.3771L55.8763 55.3791L56.6699 54.5857C58.0476 53.2081 58.0476 50.9721 56.6699 49.5942C55.2923 48.2166 53.056 48.2166 51.6784 49.5942L50.885 50.3878L50.0917 49.5942C48.714 48.2094 46.4778 48.2094 45.1001 49.587C43.7225 50.9647 43.7225 53.2007 45.1001 54.5786L45.8937 55.3719L47.7185 57.3628V57.6655H47.4372L45.4392 55.8336L44.6459 55.04C43.2682 53.6624 41.032 53.6624 39.6543 55.04C38.2767 56.4179 38.2767 58.6539 39.6543 60.0315L40.4479 60.8249L39.6543 61.6183C38.2767 62.9962 38.2767 65.2322 39.6543 66.6098C41.032 67.9874 43.2682 67.9874 44.6459 66.6098L45.4392 65.8164L47.4301 63.9914H47.7331V64.2727L45.9009 66.2707L45.1073 67.0641C43.7297 68.442 43.7297 70.678 45.1073 72.0556C46.4852 73.4332 48.7212 73.4332 50.0988 72.0556L50.3586 71.7958C50.3368 71.933 50.3225 72.0628 50.2936 72.1997L50.1853 72.8346C50.106 73.2528 50.0267 73.6784 49.933 74.0969C49.8897 74.306 49.8462 74.5153 49.7887 74.7244C49.7382 74.9335 49.6876 75.1428 49.6372 75.3447L49.4713 75.9651C49.4209 76.1742 49.3487 76.3761 49.2909 76.578C49.1755 76.9893 49.0314 77.386 48.8942 77.7898C48.7427 78.1865 48.6058 78.5832 48.4399 78.9727C47.8124 80.538 47.0116 82.0167 46.0811 83.3728L48.0791 84.6207C48.9735 83.0122 49.6876 81.3242 50.2071 79.5931C50.344 79.1603 50.4523 78.7275 50.5677 78.2876C50.6685 77.8477 50.7839 77.4149 50.8633 76.9747C50.9068 76.7585 50.9572 76.5348 50.9933 76.3185L51.1087 75.6549C51.1448 75.4312 51.1735 75.2147 51.2095 74.9913C51.2456 74.7676 51.2674 74.5511 51.2963 74.3277C51.3539 73.8878 51.39 73.4404 51.4332 73.0005L51.4836 72.3369C51.4982 72.1925 51.5054 72.041 51.5126 71.8969L51.6784 72.0628C53.056 73.4404 55.2923 73.4404 56.6699 72.0628C58.0476 70.6851 58.0476 68.4491 56.6699 67.0715L55.8763 66.2779L54.0516 64.287V63.9843H54.3328L56.3308 65.8162L57.1242 66.6098C58.5018 67.9874 60.7381 67.9874 62.1157 66.6098C63.4934 65.2322 63.4934 62.9959 62.1157 61.6183L61.3295 60.8249Z" fill="#42962F"/>
</g>
<path d="M27.1662 21.7137C27.1662 21.5036 27.1477 21.3311 27.1109 21.1966C27.0745 21.0617 27.0073 20.9453 26.9092 20.8477H30.0658C30.5404 20.8477 30.9304 20.9347 31.2364 21.1087C31.5421 21.2822 31.7695 21.5071 31.9185 21.7839C32.068 22.0602 32.1429 22.3548 32.1429 22.6677C32.1429 22.8733 32.0999 23.0854 32.0144 23.3034C31.9286 23.5209 31.8001 23.7216 31.6288 23.9055C31.4581 24.0888 31.2453 24.2366 30.9902 24.3493C30.7356 24.4616 30.4398 24.5174 30.1024 24.5174C29.8335 24.5174 29.5705 24.4907 29.3135 24.4373C29.0565 24.3835 28.8227 24.3306 28.6126 24.2792C28.4022 24.2277 28.2285 24.202 28.0916 24.202C28.0421 24.202 28.0016 24.2119 27.97 24.2317C27.9383 24.2515 27.9225 24.2809 27.9225 24.3197C27.9225 24.3928 27.9947 24.4551 28.139 24.5065C28.2834 24.5579 28.4677 24.6 28.6926 24.6321C28.9181 24.6637 29.1516 24.6909 29.3936 24.7132C29.636 24.7349 29.8553 24.7554 30.051 24.7745C30.7996 24.8483 31.3476 25.0431 31.6951 25.3587C32.0431 25.6746 32.2171 26.0841 32.2171 26.5876C32.2171 26.8763 32.1372 27.1419 31.9778 27.3844C31.8189 27.6264 31.6046 27.8209 31.3352 27.9677C31.0663 28.1147 30.7631 28.1882 30.4257 28.1882H26.9092C27.0073 28.09 27.0745 27.9736 27.1109 27.8392C27.1477 27.7047 27.1662 27.5324 27.1662 27.3221V21.7137ZM29.53 22.3158C29.2801 22.3158 29.0367 22.3415 28.7994 22.3929C28.5622 22.4443 28.3506 22.5179 28.1647 22.6133C27.9789 22.7082 27.8308 22.8185 27.7208 22.9435C27.6106 23.0681 27.5557 23.204 27.5557 23.3508C27.5557 23.5169 27.6314 23.6454 27.7831 23.7364C27.9346 23.8269 28.1106 23.8718 28.311 23.8718C28.7322 23.8718 29.0906 23.8182 29.3867 23.7107C29.6825 23.6027 29.9089 23.4705 30.0658 23.3143C30.2225 23.1576 30.3011 23.0056 30.3011 22.8585C30.3011 22.7122 30.2349 22.5854 30.1024 22.4779C29.9704 22.3699 29.7796 22.3158 29.53 22.3158ZM27.6506 24.7745C27.6163 24.7745 27.5928 24.7831 27.5805 24.8002C27.5686 24.8175 27.5627 24.8357 27.5627 24.8555C27.5627 24.8998 27.5918 24.9633 27.6506 25.0463C27.7092 25.1294 27.7802 25.2174 27.8632 25.3103C27.9467 25.4032 28.0204 25.489 28.0837 25.5673C28.2206 25.7243 28.3736 25.8946 28.5424 26.0784C28.7109 26.2618 28.8995 26.4183 29.1079 26.548C29.316 26.6773 29.5374 26.7418 29.7722 26.7418C29.919 26.7418 30.0354 26.7139 30.1212 26.6578C30.2067 26.6012 30.2678 26.5327 30.3041 26.4521C30.3409 26.3711 30.3595 26.294 30.3595 26.2208C30.3595 26.0396 30.2539 25.856 30.0431 25.6701C29.8328 25.4843 29.4561 25.3083 28.9131 25.1422C28.5216 25.0196 28.2364 24.9277 28.058 24.8664C27.8793 24.8051 27.7436 24.7745 27.6506 24.7745Z" fill="#42962F"/>
<path d="M32.5498 25.758C32.5498 25.2202 32.6499 24.7397 32.8503 24.3166C33.0505 23.893 33.3466 23.5573 33.7381 23.3102C34.1296 23.063 34.6116 22.9395 35.1845 22.9395C35.62 22.9395 35.9907 23.0324 36.2967 23.2182C36.6024 23.4041 36.8347 23.6463 36.9936 23.9449C37.1531 24.2434 37.2329 24.5618 37.2329 24.8999C37.2329 25.1446 37.1751 25.3339 37.0599 25.4683C36.9452 25.6028 36.7885 25.6984 36.5903 25.755C36.3918 25.8111 36.1677 25.844 35.918 25.8539C35.6689 25.8638 35.4084 25.8628 35.137 25.8509C34.8654 25.8386 34.5997 25.8322 34.3402 25.8322C34.3058 25.8322 34.2693 25.8359 34.2305 25.843C34.1914 25.8504 34.1721 25.8855 34.1721 25.9488C34.1721 26.0128 34.2366 26.1011 34.3659 26.2138C34.4957 26.326 34.6635 26.4409 34.8691 26.5588C35.0747 26.6762 35.2947 26.7741 35.5295 26.8524C35.7648 26.9303 35.9875 26.9691 36.1978 26.9691C36.3738 26.9691 36.5154 26.9498 36.6229 26.9107C36.7309 26.8719 36.8167 26.8282 36.88 26.7792C36.9437 26.7298 36.9966 26.6858 37.0381 26.6468C37.0797 26.6072 37.1175 26.5875 37.1518 26.5875C37.176 26.5875 37.2018 26.5973 37.2289 26.6171C37.2559 26.6369 37.2695 26.6784 37.2695 26.7417C37.2695 26.8789 37.2289 27.0368 37.1479 27.2152C37.0673 27.3939 36.9452 27.5652 36.7811 27.7293C36.617 27.8934 36.4064 28.0294 36.1494 28.1366C35.8928 28.2439 35.5883 28.2978 35.2359 28.2978C34.8839 28.2978 34.5461 28.234 34.2225 28.107C33.8995 27.9799 33.6131 27.8012 33.3634 27.5711C33.1143 27.3413 32.9161 27.0724 32.7693 26.7644C32.623 26.456 32.5498 26.1206 32.5498 25.758ZM33.3713 24.4155C33.3713 24.5862 33.3993 24.7536 33.4554 24.9177C33.512 25.0818 33.6027 25.2167 33.7272 25.322C33.8523 25.4268 34.013 25.4792 34.2087 25.4792C34.38 25.4792 34.5537 25.4733 34.7297 25.4614C34.9057 25.4491 35.0681 25.4246 35.2171 25.3883C35.3666 25.3514 35.4865 25.2963 35.577 25.2232C35.6679 25.1495 35.7134 25.0511 35.7134 24.9286C35.7134 24.7382 35.6654 24.5694 35.57 24.4224C35.4744 24.2756 35.3496 24.1505 35.1953 24.0477C35.0411 23.9449 34.8782 23.8678 34.707 23.8164C34.5362 23.7649 34.3723 23.7392 34.2156 23.7392C34.0785 23.7392 33.945 23.7664 33.8152 23.8203C33.686 23.8744 33.5795 23.9516 33.4959 24.0516C33.4129 24.152 33.3713 24.2731 33.3713 24.4155Z" fill="#42962F"/>
<path d="M37.415 23.049C37.5618 23.049 37.7257 22.9981 37.9064 22.8957C38.0875 22.7929 38.2712 22.6644 38.457 22.5102C38.6434 22.356 38.8199 22.2032 38.986 22.0515C39.152 21.9 39.2986 21.7727 39.4259 21.6698C39.5537 21.567 39.6468 21.5156 39.7057 21.5156C39.7986 21.5156 39.8451 21.5744 39.8451 21.6916V23.049H40.4758V23.4167H39.8451V26.3816C39.8451 26.5729 39.8473 26.764 39.852 26.955C39.8572 27.1456 39.8841 27.3168 39.9331 27.4691C39.9817 27.6208 40.0697 27.738 40.197 27.821C40.2267 27.8403 40.2573 27.8497 40.289 27.8497C40.3206 27.8497 40.3535 27.8546 40.3878 27.8645C40.3779 27.953 40.33 28.0301 40.2445 28.0959C40.1587 28.1619 40.0571 28.2118 39.94 28.2461C39.8226 28.2803 39.7052 28.2976 39.588 28.2976C39.2353 28.2976 38.9526 28.2387 38.7398 28.1216C38.5267 28.0044 38.3653 27.8467 38.2554 27.649C38.1451 27.4508 38.0717 27.2293 38.0349 26.9847C37.9986 26.7395 37.9805 26.4921 37.9805 26.2422V23.8863C37.9805 23.8132 37.9766 23.74 37.9687 23.6669C37.9613 23.5932 37.9343 23.5331 37.8876 23.4869C37.8414 23.4402 37.7596 23.4167 37.6424 23.4167H37.415V23.049Z" fill="#42962F"/>
<path d="M40.5508 23.049C40.6976 23.049 40.8615 22.9981 41.0421 22.8957C41.2233 22.7929 41.4069 22.6644 41.5928 22.5102C41.7791 22.356 41.9556 22.2032 42.1217 22.0515C42.2878 21.9 42.4343 21.7727 42.5616 21.6698C42.6894 21.567 42.7826 21.5156 42.8414 21.5156C42.9343 21.5156 42.9808 21.5744 42.9808 21.6916V23.049H43.6115V23.4167H42.9808V26.3816C42.9808 26.5729 42.983 26.764 42.9877 26.955C42.9929 27.1456 43.0199 27.3168 43.0688 27.4691C43.1175 27.6208 43.2055 27.738 43.3328 27.821C43.3624 27.8403 43.3931 27.8497 43.4247 27.8497C43.4563 27.8497 43.4892 27.8546 43.5236 27.8645C43.5137 27.953 43.4657 28.0301 43.3802 28.0959C43.2944 28.1619 43.1929 28.2118 43.0757 28.2461C42.9583 28.2803 42.8409 28.2976 42.7238 28.2976C42.3711 28.2976 42.0883 28.2387 41.8755 28.1216C41.6625 28.0044 41.5011 27.8467 41.3911 27.649C41.2809 27.4508 41.2075 27.2293 41.1706 26.9847C41.1343 26.7395 41.1163 26.4921 41.1163 26.2422V23.8863C41.1163 23.8132 41.1123 23.74 41.1044 23.6669C41.097 23.5932 41.0701 23.5331 41.0233 23.4869C40.9771 23.4402 40.8953 23.4167 40.7782 23.4167H40.5508V23.049Z" fill="#42962F"/>
<path d="M43.8682 25.758C43.8682 25.2202 43.9683 24.7397 44.1687 24.3166C44.3689 23.893 44.665 23.5573 45.0565 23.3102C45.448 23.063 45.9299 22.9395 46.5028 22.9395C46.9383 22.9395 47.3091 23.0324 47.615 23.2182C47.9208 23.4041 48.1531 23.6463 48.312 23.9449C48.4714 24.2434 48.5513 24.5618 48.5513 24.8999C48.5513 25.1446 48.4934 25.3339 48.3782 25.4683C48.2636 25.6028 48.1069 25.6984 47.9086 25.755C47.7102 25.8111 47.486 25.844 47.2364 25.8539C46.9873 25.8638 46.7268 25.8628 46.4554 25.8509C46.1838 25.8386 45.9181 25.8322 45.6586 25.8322C45.6242 25.8322 45.5876 25.8359 45.5488 25.843C45.5098 25.8504 45.4905 25.8855 45.4905 25.9488C45.4905 26.0128 45.555 26.1011 45.6843 26.2138C45.814 26.326 45.9818 26.4409 46.1875 26.5588C46.3931 26.6762 46.6131 26.7741 46.8479 26.8524C47.0832 26.9303 47.3058 26.9691 47.5162 26.9691C47.6921 26.9691 47.8338 26.9498 47.9413 26.9107C48.0493 26.8719 48.135 26.8282 48.1983 26.7792C48.2621 26.7298 48.315 26.6858 48.3565 26.6468C48.398 26.6072 48.4358 26.5875 48.4702 26.5875C48.4944 26.5875 48.5201 26.5973 48.5473 26.6171C48.5742 26.6369 48.5878 26.6784 48.5878 26.7417C48.5878 26.8789 48.5473 27.0368 48.4662 27.2152C48.3857 27.3939 48.2636 27.5652 48.0995 27.7293C47.9353 27.8934 47.7248 28.0294 47.4677 28.1366C47.2112 28.2439 46.9067 28.2978 46.5542 28.2978C46.2023 28.2978 45.8644 28.234 45.5409 28.107C45.2179 27.9799 44.9314 27.8012 44.6818 27.5711C44.4327 27.3413 44.2344 27.0724 44.0876 26.7644C43.9413 26.456 43.8682 26.1206 43.8682 25.758ZM44.6897 24.4155C44.6897 24.5862 44.7176 24.7536 44.7737 24.9177C44.8303 25.0818 44.921 25.2167 45.0456 25.322C45.1707 25.4268 45.3313 25.4792 45.5271 25.4792C45.6983 25.4792 45.8721 25.4733 46.0481 25.4614C46.224 25.4491 46.3864 25.4246 46.5355 25.3883C46.685 25.3514 46.8049 25.2963 46.8953 25.2232C46.9863 25.1495 47.0317 25.0511 47.0317 24.9286C47.0317 24.7382 46.9838 24.5694 46.8884 24.4224C46.7927 24.2756 46.6679 24.1505 46.5137 24.0477C46.3595 23.9449 46.1966 23.8678 46.0253 23.8164C45.8545 23.7649 45.6907 23.7392 45.534 23.7392C45.3968 23.7392 45.2634 23.7664 45.1336 23.8203C45.0043 23.8744 44.8978 23.9516 44.8143 24.0516C44.7312 24.152 44.6897 24.2731 44.6897 24.4155Z" fill="#42962F"/>
<path d="M48.8076 28.188C48.9057 28.0899 48.973 27.9735 49.0093 27.839C49.0461 27.7046 49.0647 27.5323 49.0647 27.322V23.9162C49.0647 23.7054 49.0461 23.5326 49.0093 23.3982C48.973 23.2637 48.9057 23.1476 48.8076 23.0492H50.6059C50.7626 23.0492 50.8691 23.1046 50.9252 23.2153C50.9818 23.3255 51.0103 23.4733 51.0103 23.6592V23.7837C51.0103 23.8722 51.0147 23.9236 51.0241 23.938C51.034 23.9525 51.0463 23.9597 51.0617 23.9597C51.1151 23.9597 51.1675 23.9256 51.2189 23.8569C51.2703 23.7884 51.3301 23.7027 51.3988 23.5999C51.4672 23.497 51.5552 23.3957 51.6627 23.2954C51.7708 23.1953 51.9042 23.111 52.0631 23.0423C52.2226 22.9738 52.4173 22.9395 52.6474 22.9395C52.7791 22.9395 52.9158 22.9568 53.0577 22.9909C53.2001 23.0252 53.3199 23.0744 53.4175 23.1382C53.5157 23.2014 53.5649 23.2823 53.5649 23.3804C53.5649 23.4239 53.5218 23.5277 53.4363 23.6918C53.3506 23.8559 53.2613 24.0309 53.1684 24.2167C53.0656 24.4172 52.9722 24.5993 52.8886 24.7635C52.8056 24.9276 52.7297 25.0096 52.6613 25.0096C52.5834 25.0096 52.5224 24.9767 52.4784 24.9108C52.4341 24.8443 52.3874 24.7694 52.338 24.6863C52.289 24.6033 52.2169 24.5289 52.1215 24.4629C52.0266 24.3972 51.8911 24.3641 51.7151 24.3641C51.5095 24.3641 51.3563 24.4169 51.2554 24.5222C51.1551 24.627 51.0893 24.7531 51.0577 24.8999C51.0261 25.0462 51.0103 25.1881 51.0103 25.325V27.322C51.0103 27.5323 51.0283 27.7046 51.0646 27.839C51.1015 27.9735 51.1689 28.0899 51.2673 28.188H48.8076Z" fill="#42962F"/>
<path d="M56.2435 21.7358C56.2336 21.7313 56.2129 21.7239 56.1812 21.714C56.1496 21.7042 56.1338 21.6772 56.1338 21.633C56.1338 21.5942 56.1461 21.5697 56.1704 21.5598C56.1948 21.5499 56.2092 21.5428 56.2139 21.5381C56.2732 21.5084 56.3674 21.4634 56.4966 21.4026C56.6264 21.3413 56.7744 21.2729 56.9405 21.197C57.1071 21.1214 57.2771 21.0492 57.4506 20.9805C57.6246 20.912 57.785 20.8547 57.9321 20.8085C58.0789 20.7618 58.1963 20.7383 58.284 20.7383C58.392 20.7383 58.4556 20.7677 58.4748 20.8263C58.4946 20.8851 58.5045 20.9508 58.5045 21.024V27.3225C58.5045 27.5328 58.5225 27.7051 58.5589 27.8395C58.5957 27.974 58.6632 28.0904 58.7615 28.1885H56.9632C56.8063 28.1885 56.6995 28.1349 56.6429 28.0274C56.5868 27.9194 56.5589 27.7723 56.5589 27.5864V22.3013C56.5589 22.2724 56.5574 22.2187 56.5549 22.1401C56.553 22.0618 56.5297 21.9825 56.4857 21.9019C56.4415 21.8208 56.3607 21.7655 56.2435 21.7358Z" fill="#42962F"/>
<path d="M58.8711 23.0488H61.3308C61.2324 23.1472 61.1649 23.2634 61.1281 23.3978C61.0918 23.5323 61.0737 23.705 61.0737 23.9158V26.3014C61.0737 26.4675 61.1029 26.6182 61.1617 26.7532C61.2203 26.8876 61.3303 26.9549 61.4919 26.9549C61.6046 26.9549 61.7097 26.9242 61.8073 26.8629C61.9054 26.8016 61.9847 26.6953 62.0455 26.5436C62.1068 26.3921 62.1375 26.1815 62.1375 25.9119V23.9158C62.1375 23.705 62.119 23.5323 62.0821 23.3978C62.0458 23.2634 61.9786 23.1472 61.8804 23.0488H64.3401C64.2418 23.1472 64.1743 23.2634 64.1375 23.3978C64.1011 23.5323 64.0831 23.705 64.0831 23.9158V27.3216C64.0831 27.532 64.1011 27.7042 64.1375 27.8387C64.1743 27.9731 64.2418 28.0895 64.3401 28.1877H62.5418C62.3849 28.1877 62.2781 28.1328 62.2215 28.0226C62.1654 27.9126 62.1375 27.7645 62.1375 27.5787V27.4531C62.1375 27.3656 62.1325 27.3145 62.1227 27.2999C62.1133 27.2848 62.1012 27.2772 62.0861 27.2772C62.0273 27.2772 61.9697 27.3115 61.9131 27.38C61.857 27.4487 61.791 27.5332 61.7154 27.634C61.6395 27.7344 61.5465 27.8357 61.4366 27.9385C61.3263 28.0409 61.1869 28.1261 61.0184 28.1946C60.8496 28.2631 60.6402 28.2974 60.3906 28.2974C60.1217 28.2974 59.9052 28.245 59.7411 28.1402C59.577 28.0349 59.4507 27.8955 59.3624 27.722C59.2747 27.548 59.2146 27.3609 59.1825 27.1605C59.1509 26.9596 59.1351 26.7636 59.1351 26.5723L59.1281 25.1704V23.9158C59.1281 23.705 59.1096 23.5323 59.0728 23.3978C59.0364 23.2634 58.9692 23.1472 58.8711 23.0488Z" fill="#42962F"/>
<path d="M64.5957 25.758C64.5957 25.3764 64.6506 25.0156 64.7608 24.6755C64.8708 24.3354 65.0369 24.0358 65.2591 23.7768C65.4818 23.5173 65.7618 23.3129 66.0994 23.1639C66.4375 23.0143 66.8364 22.9395 67.2966 22.9395C67.4968 22.9395 67.7 22.9689 67.9056 23.0274C68.1112 23.0863 68.2996 23.1619 68.4711 23.2548C68.6424 23.3478 68.7818 23.4456 68.8893 23.5484C68.9973 23.6513 69.0514 23.7469 69.0514 23.8351C69.0514 23.8984 69.0193 23.9684 68.9555 24.0447C68.8922 24.1206 68.8136 24.199 68.7202 24.28C68.6273 24.3606 68.5368 24.4397 68.4493 24.5173C68.3465 24.6058 68.2388 24.7012 68.1261 24.804C68.0134 24.9068 67.9128 24.9938 67.8245 25.065C67.7368 25.1357 67.6735 25.1708 67.6347 25.1708C67.5754 25.1708 67.5371 25.1441 67.52 25.0907C67.5035 25.0368 67.4817 24.9632 67.4548 24.8702C67.4276 24.7773 67.3727 24.6723 67.2897 24.5549C67.1374 24.3393 66.9511 24.1522 66.7311 23.9933C66.5109 23.8339 66.2808 23.7541 66.0411 23.7541C65.8307 23.7541 65.6693 23.8262 65.5566 23.9706C65.4444 24.1149 65.3886 24.2973 65.3886 24.5173C65.3886 24.7573 65.4521 24.9948 65.5794 25.2301C65.7064 25.4649 65.874 25.6876 66.0816 25.8984C66.2897 26.1087 66.5198 26.2933 66.7717 26.452C67.024 26.6109 67.2783 26.7367 67.5349 26.8297C67.7919 26.9226 68.0282 26.9691 68.2437 26.9691C68.4197 26.9691 68.5613 26.9498 68.6688 26.9107C68.7768 26.8719 68.8626 26.8282 68.9259 26.7792C68.9896 26.7298 69.0425 26.6858 69.084 26.6468C69.1256 26.6072 69.1634 26.5875 69.1977 26.5875C69.2219 26.5875 69.2476 26.5973 69.2748 26.6171C69.3018 26.6369 69.3154 26.6784 69.3154 26.7417C69.3154 26.8789 69.2748 27.0368 69.1938 27.2152C69.1132 27.3939 68.9911 27.5652 68.827 27.7293C68.6629 27.8934 68.4523 28.0294 68.1953 28.1366C67.9387 28.2439 67.6342 28.2978 67.2818 28.2978C66.9298 28.2978 66.592 28.234 66.2684 28.107C65.9454 27.9799 65.659 27.8012 65.4093 27.5711C65.1602 27.3413 64.962 27.0724 64.8152 26.7644C64.6689 26.456 64.5957 26.1206 64.5957 25.758Z" fill="#42962F"/>
<path d="M69.4994 21.7358C69.4895 21.7313 69.4687 21.7239 69.4371 21.714C69.4055 21.7042 69.3896 21.6772 69.3896 21.633C69.3896 21.5942 69.402 21.5697 69.4262 21.5598C69.4507 21.5499 69.465 21.5428 69.4697 21.5381C69.529 21.5139 69.6232 21.4708 69.7525 21.4096C69.8822 21.3483 70.0315 21.2798 70.2003 21.2039C70.3689 21.1283 70.5389 21.0551 70.7104 20.9844C70.8817 20.9133 71.0409 20.8547 71.1879 20.8085C71.3348 20.7618 71.4522 20.7383 71.5399 20.7383C71.6479 20.7383 71.7114 20.7677 71.7307 20.8263C71.7505 20.8851 71.7604 20.9508 71.7604 21.024V24.2617C71.9561 23.8702 72.2433 23.5524 72.6224 23.3077C73.0021 23.0625 73.4363 22.9399 73.9254 22.9399C74.0433 22.9399 74.1659 22.9523 74.2932 22.9765C74.4202 23.001 74.5277 23.0378 74.6155 23.0872C74.7037 23.1362 74.748 23.197 74.748 23.2701V24.5039C74.748 24.5969 74.7294 24.6777 74.6926 24.7461C74.6563 24.8149 74.5918 24.849 74.4988 24.849C74.3715 24.849 74.2551 24.827 74.1498 24.7827C74.0443 24.7387 73.9328 24.6873 73.8157 24.6285C73.6983 24.5699 73.5589 24.5185 73.3975 24.4743C73.2359 24.4303 73.0302 24.408 72.7806 24.408C72.4188 24.408 72.1558 24.4829 71.9917 24.6325C71.8276 24.7815 71.7455 24.9562 71.7455 25.1564C71.7455 25.3576 71.815 25.5585 71.9541 25.7595C72.0938 25.9599 72.2908 26.125 72.5453 26.2548C72.8004 26.384 73.0965 26.4485 73.4341 26.4485C73.6837 26.4485 73.8782 26.4256 74.0174 26.3793C74.157 26.3326 74.2719 26.2862 74.3624 26.2399C74.4534 26.1932 74.5426 26.1698 74.6303 26.1698C74.7232 26.1698 74.7732 26.2189 74.7806 26.3171C74.7885 26.4147 74.7925 26.5197 74.7925 26.6324V28.0491C74.7925 28.1322 74.7591 28.1907 74.6926 28.2251C74.6266 28.2592 74.5473 28.28 74.4543 28.2874C74.3614 28.2945 74.2734 28.2982 74.1904 28.2982C73.8476 28.2982 73.5171 28.2201 73.1988 28.0639C72.881 27.9073 72.5987 27.693 72.3516 27.4213C72.1044 27.15 71.9072 26.8477 71.7604 26.5148V27.3225C71.7604 27.5328 71.7784 27.7051 71.8147 27.8395C71.8516 27.974 71.919 28.0904 72.0174 28.1885H69.5587C69.6561 28.0904 69.7231 27.974 69.7594 27.8395C69.7962 27.7051 69.8148 27.5328 69.8148 27.3225V22.3013C69.8148 22.2724 69.8133 22.2187 69.8108 22.1401C69.8088 22.0618 69.7856 21.9825 69.7416 21.9019C69.6974 21.8208 69.6165 21.7655 69.4994 21.7358Z" fill="#42962F"/>
<path d="M31.5612 38.438H29.1016C29.1997 38.3399 29.2669 38.2235 29.3032 38.089C29.3401 37.9546 29.3586 37.7823 29.3586 37.572V34.1662C29.3586 33.9554 29.3401 33.7826 29.3032 33.6482C29.2669 33.5137 29.1997 33.3976 29.1016 33.2992H30.8999C31.0566 33.2992 31.1631 33.3546 31.2192 33.4653C31.2758 33.5755 31.3042 33.7233 31.3042 33.9092V34.0337C31.3042 34.1222 31.3087 34.1736 31.318 34.188C31.3279 34.2025 31.3403 34.2097 31.3556 34.2097C31.4142 34.2097 31.4715 34.1756 31.5276 34.1069C31.5842 34.0384 31.6505 33.9527 31.7263 33.8499C31.802 33.747 31.8949 33.6457 32.0051 33.5454C32.1151 33.4453 32.2545 33.361 32.4233 33.2923C32.5919 33.2238 32.8012 33.1895 33.0511 33.1895C33.32 33.1895 33.5365 33.2423 33.7006 33.3476C33.8647 33.4524 33.9905 33.5918 34.0783 33.7658C34.1665 33.9398 34.2266 34.1272 34.2582 34.3274C34.2903 34.5278 34.3066 34.7235 34.3066 34.9146L34.3136 36.3165V37.572C34.3136 37.7823 34.3316 37.9546 34.3679 38.089C34.4048 38.2235 34.4722 38.3399 34.5706 38.438H32.1119C32.2093 38.3399 32.2763 38.2235 32.3126 38.089C32.3494 37.9546 32.368 37.7823 32.368 37.572V35.1865C32.368 35.0152 32.3385 34.8637 32.28 34.7317C32.2211 34.5992 32.1112 34.533 31.9498 34.533C31.8371 34.533 31.7315 34.5636 31.6334 34.6249C31.5358 34.6862 31.4565 34.7915 31.3952 34.9403C31.3344 35.0893 31.3042 35.3009 31.3042 35.575V37.572C31.3042 37.7823 31.3222 37.9546 31.3586 38.089C31.3954 38.2235 31.4629 38.3399 31.5612 38.438Z" fill="#42962F"/>
<path d="M34.79 36.008C34.79 35.4702 34.8901 34.9897 35.0906 34.5666C35.2908 34.143 35.5869 33.8073 35.9784 33.5602C36.3699 33.313 36.8518 33.1895 37.4247 33.1895C37.8602 33.1895 38.2309 33.2824 38.5369 33.4682C38.8426 33.6541 39.075 33.8963 39.2339 34.1949C39.3933 34.4934 39.4731 34.8118 39.4731 35.1499C39.4731 35.3946 39.4153 35.5839 39.3001 35.7183C39.1854 35.8528 39.0287 35.9484 38.8305 36.005C38.6321 36.0611 38.4079 36.094 38.1583 36.1039C37.9091 36.1138 37.6486 36.1128 37.3773 36.1009C37.1056 36.0886 36.8399 36.0822 36.5804 36.0822C36.5461 36.0822 36.5095 36.0859 36.4707 36.093C36.4316 36.1004 36.4124 36.1355 36.4124 36.1988C36.4124 36.2628 36.4769 36.3511 36.6061 36.4638C36.7359 36.576 36.9037 36.6909 37.1093 36.8088C37.315 36.9262 37.5349 37.0241 37.7697 37.1024C38.005 37.1803 38.2277 37.2191 38.438 37.2191C38.614 37.2191 38.7556 37.1998 38.8631 37.1607C38.9712 37.1219 39.0569 37.0782 39.1202 37.0292C39.184 36.9798 39.2368 36.9358 39.2784 36.8968C39.3199 36.8572 39.3577 36.8375 39.3921 36.8375C39.4163 36.8375 39.442 36.8473 39.4692 36.8671C39.4961 36.8869 39.5097 36.9284 39.5097 36.9917C39.5097 37.1289 39.4692 37.2868 39.3881 37.4652C39.3075 37.6439 39.1854 37.8152 39.0213 37.9793C38.8572 38.1434 38.6466 38.2794 38.3896 38.3866C38.1331 38.4939 37.8286 38.5478 37.4761 38.5478C37.1242 38.5478 36.7863 38.484 36.4628 38.357C36.1398 38.2299 35.8533 38.0512 35.6037 37.8211C35.3545 37.5913 35.1563 37.3224 35.0095 37.0144C34.8632 36.706 34.79 36.3706 34.79 36.008ZM35.6116 34.6655C35.6116 34.8362 35.6395 35.0036 35.6956 35.1677C35.7522 35.3318 35.8429 35.4667 35.9675 35.572C36.0925 35.6768 36.2532 35.7292 36.4489 35.7292C36.6202 35.7292 36.794 35.7233 36.9699 35.7114C37.1459 35.6991 37.3083 35.6746 37.4573 35.6383C37.6069 35.6014 37.7267 35.5463 37.8172 35.4732C37.9081 35.3995 37.9536 35.3011 37.9536 35.1786C37.9536 34.9882 37.9057 34.8194 37.8103 34.6724C37.7146 34.5256 37.5898 34.4005 37.4356 34.2977C37.2814 34.1949 37.1185 34.1178 36.9472 34.0664C36.7764 34.0149 36.6126 33.9892 36.4559 33.9892C36.3187 33.9892 36.1852 34.0164 36.0555 34.0703C35.9262 34.1244 35.8197 34.2016 35.7361 34.3016C35.6531 34.402 35.6116 34.5231 35.6116 34.6655Z" fill="#42962F"/>
<path d="M39.7305 33.2988H42.2999C42.2655 33.3873 42.2826 33.5477 42.3513 33.7803C42.4198 34.0131 42.5263 34.2872 42.6706 34.6028C42.815 34.9179 42.9776 35.2494 43.159 35.5974C43.1978 35.6508 43.2443 35.6774 43.2984 35.6774C43.3617 35.6774 43.4225 35.6288 43.4813 35.5311C43.5406 35.433 43.5703 35.264 43.5703 35.024C43.5703 34.6819 43.4917 34.3616 43.335 34.063C43.178 33.7645 42.9845 33.5099 42.7547 33.2988H44.3997C44.5314 33.2988 44.6498 33.3589 44.7546 33.4788C44.8599 33.5989 44.9128 33.7516 44.9128 33.9375C44.9128 34.1629 44.8649 34.3858 44.7695 34.6058C44.6746 34.826 44.55 35.0316 44.3958 35.2227C44.2415 35.4132 44.075 35.5783 43.8965 35.718C43.7178 35.8579 43.5451 35.9592 43.3785 36.0225C43.5352 36.3067 43.6931 36.582 43.852 36.849C44.0114 37.1154 44.1634 37.3586 44.3078 37.5786C44.4521 37.7988 44.5816 37.9849 44.6963 38.1371C44.8115 38.2889 44.9034 38.389 44.9721 38.4377H42.4027C42.4415 38.3447 42.4254 38.1833 42.3543 37.9532C42.2836 37.7234 42.1773 37.4505 42.0349 37.1347C41.8931 36.8191 41.7295 36.4876 41.5436 36.1401C41.5045 36.0862 41.4581 36.0591 41.4042 36.0591C41.3409 36.0591 41.2796 36.1082 41.2203 36.2064C41.1615 36.304 41.1323 36.4728 41.1323 36.7125C41.1323 37.0553 41.2107 37.3747 41.3676 37.6705C41.5243 37.9666 41.7178 38.2221 41.9479 38.4377H40.3029C40.1709 38.4377 40.0523 38.3779 39.947 38.2577C39.8422 38.1379 39.7898 37.9849 39.7898 37.799C39.7898 37.5736 39.8372 37.3509 39.9321 37.1307C40.0275 36.9107 40.1526 36.7054 40.3068 36.5148C40.4611 36.3238 40.6274 36.1587 40.8061 36.0195C40.9845 35.8799 41.157 35.778 41.3231 35.714C41.1669 35.4308 41.009 35.1555 40.8496 34.8885C40.6907 34.6216 40.5392 34.3782 40.3948 34.1579C40.2505 33.938 40.1205 33.7521 40.0053 33.6004C39.8906 33.4489 39.7989 33.3483 39.7305 33.2988Z" fill="#42962F"/>
<path d="M45.0459 33.299C45.1927 33.299 45.3566 33.2481 45.5372 33.1457C45.7184 33.0429 45.902 32.9144 46.0879 32.7602C46.2743 32.606 46.4507 32.4532 46.6168 32.3015C46.7829 32.15 46.9295 32.0227 47.0567 31.9198C47.1845 31.817 47.2777 31.7656 47.3365 31.7656C47.4295 31.7656 47.4759 31.8244 47.4759 31.9416V33.299H48.1067V33.6667H47.4759V36.6316C47.4759 36.8229 47.4781 37.014 47.4828 37.205C47.488 37.3956 47.515 37.5668 47.5639 37.7191C47.6126 37.8708 47.7006 37.988 47.8279 38.071C47.8575 38.0903 47.8882 38.0997 47.9198 38.0997C47.9514 38.0997 47.9843 38.1046 48.0187 38.1145C48.0088 38.203 47.9608 38.2801 47.8753 38.3459C47.7896 38.4119 47.688 38.4618 47.5708 38.4961C47.4534 38.5303 47.336 38.5476 47.2189 38.5476C46.8662 38.5476 46.5834 38.4887 46.3706 38.3716C46.1576 38.2544 45.9962 38.0967 45.8862 37.899C45.776 37.7008 45.7026 37.4793 45.6658 37.2347C45.6294 36.9895 45.6114 36.7421 45.6114 36.4922V34.1363C45.6114 34.0632 45.6074 33.99 45.5995 33.9169C45.5921 33.8432 45.5652 33.7831 45.5185 33.7369C45.4722 33.6902 45.3904 33.6667 45.2733 33.6667H45.0459V33.299Z" fill="#42962F"/>
<path d="M50.749 33.299C50.8958 33.299 51.0597 33.2481 51.2404 33.1457C51.4215 33.0429 51.6052 32.9144 51.791 32.7602C51.9774 32.606 52.1539 32.4532 52.3199 32.3015C52.486 32.15 52.6326 32.0227 52.7599 31.9198C52.8877 31.817 52.9808 31.7656 53.0397 31.7656C53.1326 31.7656 53.179 31.8244 53.179 31.9416V33.299H53.8098V33.6667H53.179V36.6316C53.179 36.8229 53.1813 37.014 53.186 37.205C53.1912 37.3956 53.2181 37.5668 53.267 37.7191C53.3157 37.8708 53.4037 37.988 53.531 38.071C53.5607 38.0903 53.5913 38.0997 53.6229 38.0997C53.6546 38.0997 53.6874 38.1046 53.7218 38.1145C53.7119 38.203 53.664 38.2801 53.5785 38.3459C53.4927 38.4119 53.3911 38.4618 53.274 38.4961C53.1566 38.5303 53.0392 38.5476 52.922 38.5476C52.5693 38.5476 52.2866 38.4887 52.0738 38.3716C51.8607 38.2544 51.6993 38.0967 51.5893 37.899C51.4791 37.7008 51.4057 37.4793 51.3689 37.2347C51.3326 36.9895 51.3145 36.7421 51.3145 36.4922V34.1363C51.3145 34.0632 51.3106 33.99 51.3026 33.9169C51.2952 33.8432 51.2683 33.7831 51.2216 33.7369C51.1754 33.6902 51.0936 33.6667 50.9764 33.6667H50.749V33.299Z" fill="#42962F"/>
<path d="M53.8838 34.0847C53.8838 34.0459 53.8959 34.0214 53.9204 34.0115C53.9446 34.0016 53.9594 33.9942 53.9649 33.9888C54.0234 33.9599 54.1151 33.9146 54.2397 33.8533C54.3643 33.7921 54.5059 33.7236 54.6648 33.6477C54.8242 33.5721 54.9871 33.4999 55.1532 33.4312C55.3198 33.3627 55.474 33.3054 55.6158 33.2592C55.7582 33.2125 55.8731 33.189 55.9609 33.189C56.0689 33.189 56.1324 33.2184 56.1517 33.277C56.1715 33.3358 56.1813 33.402 56.1813 33.4757V37.5715C56.1813 37.7819 56.1994 37.9541 56.2357 38.0886C56.2725 38.223 56.34 38.3395 56.4384 38.4376H53.9797C54.0771 38.3395 54.144 38.223 54.1804 38.0886C54.2172 37.9541 54.2357 37.7819 54.2357 37.5715V34.753C54.2357 34.7233 54.2343 34.6695 54.2318 34.5909C54.2298 34.5125 54.2125 34.4332 54.1804 34.3526C54.1487 34.2715 54.0865 34.2167 53.9935 34.1875C53.9841 34.1823 53.9634 34.1751 53.9312 34.1658C53.8996 34.1559 53.8838 34.1289 53.8838 34.0847ZM55.1907 30.6641C55.5135 30.6641 55.773 30.7619 55.9688 30.9577C56.1645 31.1534 56.2624 31.4129 56.2624 31.7357C56.2624 32.0588 56.1645 32.318 55.9688 32.5138C55.773 32.7095 55.5135 32.8074 55.1907 32.8074C54.8677 32.8074 54.6084 32.7095 54.4127 32.5138C54.217 32.318 54.1191 32.0588 54.1191 31.7357C54.1191 31.4129 54.217 31.1534 54.4127 30.9577C54.6084 30.7619 54.8677 30.6641 55.1907 30.6641Z" fill="#42962F"/>
<path d="M59.0808 38.438H56.6221C56.7194 38.3399 56.7864 38.2235 56.8228 38.089C56.8596 37.9546 56.8781 37.7823 56.8781 37.572V34.1662C56.8781 33.9554 56.8596 33.7826 56.8228 33.6482C56.7864 33.5137 56.7194 33.3976 56.6221 33.2992H58.4204C58.5766 33.2992 58.6826 33.3546 58.7387 33.4653C58.7953 33.5755 58.8237 33.7233 58.8237 33.9092V34.0337C58.8237 34.1222 58.8287 34.1736 58.8386 34.188C58.8484 34.2025 58.8606 34.2097 58.8751 34.2097C58.9337 34.2097 58.991 34.1756 59.0472 34.1069C59.1038 34.0384 59.17 33.9527 59.2459 33.8499C59.3215 33.747 59.4144 33.6457 59.5247 33.5454C59.6346 33.4453 59.774 33.361 59.9428 33.2923C60.1114 33.2238 60.3207 33.1895 60.5706 33.1895C60.9278 33.1895 61.1957 33.2814 61.3744 33.4653C61.5528 33.6487 61.6742 33.8701 61.7382 34.1296C61.7624 34.1786 61.7891 34.2043 61.8183 34.2067C61.8479 34.2087 61.8677 34.2097 61.8776 34.2097C61.9361 34.2097 61.9935 34.1756 62.0496 34.1069C62.1062 34.0384 62.1724 33.9527 62.2483 33.8499C62.3239 33.747 62.4169 33.6457 62.5271 33.5454C62.6371 33.4453 62.7765 33.361 62.9453 33.2923C63.1138 33.2238 63.3232 33.1895 63.573 33.1895C63.842 33.1895 64.0585 33.2423 64.2226 33.3476C64.3867 33.4524 64.5125 33.5918 64.6002 33.7658C64.6885 33.9398 64.7485 34.1272 64.7802 34.3274C64.8123 34.5278 64.8286 34.7235 64.8286 34.9146L64.8355 36.3165V37.572C64.8355 37.7823 64.8536 37.9546 64.8899 38.089C64.9267 38.2235 64.9942 38.3399 65.0926 38.438H62.6339C62.7312 38.3399 62.7982 38.2235 62.8346 38.089C62.8714 37.9546 62.8899 37.7823 62.8899 37.572V35.1865C62.8899 35.0152 62.8605 34.8637 62.8019 34.7317C62.7431 34.5992 62.6331 34.533 62.4717 34.533C62.3155 34.533 62.1737 34.5968 62.0466 34.7238C61.9193 34.8511 61.8459 35.0911 61.8262 35.4435L61.8331 36.3165V37.572C61.8331 37.7823 61.8514 37.9546 61.8884 38.089C61.9253 38.2235 61.9925 38.3399 62.0901 38.438H59.6314C59.7288 38.3399 59.796 38.2235 59.8331 38.089C59.8699 37.9546 59.8885 37.7823 59.8885 37.572V35.1865C59.8885 35.0152 59.8588 34.8637 59.7995 34.7317C59.7407 34.5992 59.6307 34.533 59.4693 34.533C59.3571 34.533 59.252 34.5636 59.1539 34.6249C59.0563 34.6862 58.977 34.7915 58.9157 34.9403C58.8544 35.0893 58.8237 35.3009 58.8237 35.575V37.572C58.8237 37.7823 58.8418 37.9546 58.8781 38.089C58.9149 38.2235 58.9824 38.3399 59.0808 38.438Z" fill="#42962F"/>
<path d="M65.3145 36.008C65.3145 35.4702 65.4146 34.9897 65.615 34.5666C65.8152 34.143 66.1113 33.8073 66.5028 33.5602C66.8943 33.313 67.3762 33.1895 67.9491 33.1895C68.3846 33.1895 68.7553 33.2824 69.0613 33.4682C69.367 33.6541 69.5994 33.8963 69.7583 34.1949C69.9177 34.4934 69.9975 34.8118 69.9975 35.1499C69.9975 35.3946 69.9397 35.5839 69.8245 35.7183C69.7099 35.8528 69.5532 35.9484 69.3549 36.005C69.1565 36.0611 68.9323 36.094 68.6827 36.1039C68.4335 36.1138 68.173 36.1128 67.9017 36.1009C67.63 36.0886 67.3644 36.0822 67.1048 36.0822C67.0705 36.0822 67.0339 36.0859 66.9951 36.093C66.9561 36.1004 66.9368 36.1355 66.9368 36.1988C66.9368 36.2628 67.0013 36.3511 67.1305 36.4638C67.2603 36.576 67.4281 36.6909 67.6338 36.8088C67.8394 36.9262 68.0594 37.0241 68.2942 37.1024C68.5294 37.1803 68.7521 37.2191 68.9625 37.2191C69.1384 37.2191 69.2801 37.1998 69.3876 37.1607C69.4956 37.1219 69.5813 37.0782 69.6446 37.0292C69.7084 36.9798 69.7613 36.9358 69.8028 36.8968C69.8443 36.8572 69.8821 36.8375 69.9165 36.8375C69.9407 36.8375 69.9664 36.8473 69.9936 36.8671C70.0205 36.8869 70.0341 36.9284 70.0341 36.9917C70.0341 37.1289 69.9936 37.2868 69.9125 37.4652C69.8319 37.6439 69.7099 37.8152 69.5457 37.9793C69.3816 38.1434 69.1711 38.2794 68.914 38.3866C68.6575 38.4939 68.353 38.5478 68.0005 38.5478C67.6486 38.5478 67.3107 38.484 66.9872 38.357C66.6642 38.2299 66.3777 38.0512 66.1281 37.8211C65.879 37.5913 65.6807 37.3224 65.5339 37.0144C65.3876 36.706 65.3145 36.3706 65.3145 36.008ZM66.136 34.6655C66.136 34.8362 66.1639 35.0036 66.22 35.1677C66.2766 35.3318 66.3673 35.4667 66.4919 35.572C66.617 35.6768 66.7776 35.7292 66.9734 35.7292C67.1446 35.7292 67.3184 35.7233 67.4944 35.7114C67.6703 35.6991 67.8327 35.6746 67.9817 35.6383C68.1313 35.6014 68.2511 35.5463 68.3416 35.4732C68.4326 35.3995 68.478 35.3011 68.478 35.1786C68.478 34.9882 68.4301 34.8194 68.3347 34.6724C68.239 34.5256 68.1142 34.4005 67.96 34.2977C67.8058 34.1949 67.6429 34.1178 67.4716 34.0664C67.3008 34.0149 67.137 33.9892 66.9803 33.9892C66.8431 33.9892 66.7096 34.0164 66.5799 34.0703C66.4506 34.1244 66.3441 34.2016 66.2606 34.3016C66.1775 34.402 66.136 34.5231 66.136 34.6655Z" fill="#42962F"/>
<path d="M70.3271 32.2873C70.3271 32.0575 70.3808 31.8432 70.4883 31.6447C70.5956 31.4465 70.735 31.2876 70.9065 31.1682C71.0778 31.0483 71.2614 30.9883 71.4571 30.9883C71.6573 30.9883 71.8447 31.0483 72.0187 31.1682C72.1927 31.2876 72.3333 31.4465 72.4408 31.6447C72.5481 31.8432 72.602 32.0575 72.602 32.2873C72.602 32.659 72.5676 32.9979 72.4991 33.3036C72.4304 33.6096 72.3462 33.9032 72.2461 34.1845C72.1457 34.466 72.0417 34.7574 71.9337 35.0584C71.8261 35.359 71.7332 35.6956 71.6549 36.0678C71.6455 36.1167 71.6262 36.1632 71.5965 36.2072C71.5669 36.2514 71.5226 36.2734 71.4641 36.2734C71.4151 36.2734 71.3736 36.2514 71.3395 36.2072C71.3051 36.1632 71.2831 36.1167 71.2733 36.0678C71.1902 35.7008 71.0946 35.3669 70.9866 35.0663C70.879 34.7653 70.7752 34.4727 70.6751 34.1884C70.5748 33.9045 70.4918 33.6096 70.426 33.3036C70.36 32.9979 70.3271 32.659 70.3271 32.2873ZM71.4641 38.5562C71.2881 38.5562 71.1264 38.5119 70.9796 38.4237C70.8333 38.3354 70.7172 38.2181 70.6316 38.0717C70.5459 37.9249 70.5031 37.7633 70.5031 37.5873C70.5031 37.4108 70.5459 37.2502 70.6316 37.1059C70.7172 36.9615 70.8333 36.8466 70.9796 36.7608C71.1264 36.6753 71.2881 36.6323 71.4641 36.6323C71.6405 36.6323 71.8012 36.6753 71.9455 36.7608C72.0899 36.8466 72.2048 36.9615 72.2905 37.1059C72.3761 37.2502 72.4191 37.4108 72.4191 37.5873C72.4191 37.7633 72.3761 37.9249 72.2905 38.0717C72.2048 38.2181 72.0899 38.3354 71.9455 38.4237C71.8012 38.5119 71.6405 38.5562 71.4641 38.5562Z" fill="#42962F"/>
<defs>
<linearGradient id="paint0_linear_1088_644" x1="50" y1="0" x2="50" y2="100" gradientUnits="userSpaceOnUse">
<stop offset="0.0104167" stop-color="#FAA746"/>
<stop offset="1" stop-color="#FFFFC5"/>
</linearGradient>
</defs>
</svg>
